<mxfile host="app.diagrams.net" modified="2024-05-09T19:18:54.648Z" agent="Mozilla/5.0 (Macintosh; Intel Mac OS X 10_15_7) AppleWebKit/605.1.15 (KHTML, like Gecko) Version/17.4.1 Safari/605.1.15" etag="WvM6voMhRtRWs0899bJo" version="24.3.1" type="github">
  <diagram name="Page-1" id="JKEZv24eOv-om8TVUoCV">
    <mxGraphModel dx="1593" dy="1027" grid="1" gridSize="10" guides="1" tooltips="1" connect="1" arrows="1" fold="1" page="1" pageScale="1" pageWidth="827" pageHeight="1169" math="0" shadow="0">
      <root>
        <mxCell id="0" />
        <mxCell id="1" parent="0" />
        <mxCell id="lfqBbf79xLDHL1Xbj67x-10" style="edgeStyle=orthogonalEdgeStyle;rounded=0;orthogonalLoop=1;jettySize=auto;html=1;exitX=0;exitY=0.5;exitDx=0;exitDy=0;exitPerimeter=0;" edge="1" parent="1" source="lfqBbf79xLDHL1Xbj67x-1">
          <mxGeometry relative="1" as="geometry">
            <mxPoint x="210" y="370" as="targetPoint" />
          </mxGeometry>
        </mxCell>
        <mxCell id="lfqBbf79xLDHL1Xbj67x-1" value="" style="pointerEvents=1;verticalLabelPosition=bottom;shadow=0;dashed=0;align=center;html=1;verticalAlign=top;shape=mxgraph.electrical.resistors.resistor_1;" vertex="1" parent="1">
          <mxGeometry x="230" y="220" width="100" height="20" as="geometry" />
        </mxCell>
        <mxCell id="lfqBbf79xLDHL1Xbj67x-11" style="edgeStyle=orthogonalEdgeStyle;rounded=0;orthogonalLoop=1;jettySize=auto;html=1;exitX=1;exitY=0.5;exitDx=0;exitDy=0;exitPerimeter=0;" edge="1" parent="1" source="lfqBbf79xLDHL1Xbj67x-2">
          <mxGeometry relative="1" as="geometry">
            <mxPoint x="620" y="360" as="targetPoint" />
          </mxGeometry>
        </mxCell>
        <mxCell id="lfqBbf79xLDHL1Xbj67x-2" value="" style="pointerEvents=1;verticalLabelPosition=bottom;shadow=0;dashed=0;align=center;html=1;verticalAlign=top;shape=mxgraph.electrical.resistors.resistor_1;" vertex="1" parent="1">
          <mxGeometry x="500" y="220" width="100" height="20" as="geometry" />
        </mxCell>
        <mxCell id="lfqBbf79xLDHL1Xbj67x-3" value="" style="pointerEvents=1;verticalLabelPosition=bottom;shadow=0;dashed=0;align=center;html=1;verticalAlign=top;shape=mxgraph.electrical.resistors.resistor_1;" vertex="1" parent="1">
          <mxGeometry x="230" y="350" width="100" height="20" as="geometry" />
        </mxCell>
        <mxCell id="lfqBbf79xLDHL1Xbj67x-4" value="" style="pointerEvents=1;verticalLabelPosition=bottom;shadow=0;dashed=0;align=center;html=1;verticalAlign=top;shape=mxgraph.electrical.resistors.resistor_1;" vertex="1" parent="1">
          <mxGeometry x="500" y="350" width="100" height="20" as="geometry" />
        </mxCell>
        <mxCell id="lfqBbf79xLDHL1Xbj67x-5" value="" style="verticalLabelPosition=bottom;shadow=0;dashed=0;align=center;fillColor=strokeColor;html=1;verticalAlign=top;strokeWidth=1;shape=mxgraph.electrical.miscellaneous.monocell_battery;" vertex="1" parent="1">
          <mxGeometry x="380" y="490" width="100" height="60" as="geometry" />
        </mxCell>
        <mxCell id="lfqBbf79xLDHL1Xbj67x-6" style="edgeStyle=orthogonalEdgeStyle;rounded=0;orthogonalLoop=1;jettySize=auto;html=1;exitX=0;exitY=0.5;exitDx=0;exitDy=0;exitPerimeter=0;entryX=0;entryY=0.5;entryDx=0;entryDy=0;entryPerimeter=0;" edge="1" parent="1" source="lfqBbf79xLDHL1Xbj67x-5" target="lfqBbf79xLDHL1Xbj67x-3">
          <mxGeometry relative="1" as="geometry" />
        </mxCell>
        <mxCell id="lfqBbf79xLDHL1Xbj67x-7" style="edgeStyle=orthogonalEdgeStyle;rounded=0;orthogonalLoop=1;jettySize=auto;html=1;exitX=1;exitY=0.5;exitDx=0;exitDy=0;exitPerimeter=0;entryX=1;entryY=0.5;entryDx=0;entryDy=0;entryPerimeter=0;" edge="1" parent="1" source="lfqBbf79xLDHL1Xbj67x-5" target="lfqBbf79xLDHL1Xbj67x-4">
          <mxGeometry relative="1" as="geometry" />
        </mxCell>
        <mxCell id="lfqBbf79xLDHL1Xbj67x-8" style="edgeStyle=orthogonalEdgeStyle;rounded=0;orthogonalLoop=1;jettySize=auto;html=1;exitX=1;exitY=0.5;exitDx=0;exitDy=0;exitPerimeter=0;entryX=0;entryY=0.5;entryDx=0;entryDy=0;entryPerimeter=0;" edge="1" parent="1" source="lfqBbf79xLDHL1Xbj67x-3" target="lfqBbf79xLDHL1Xbj67x-4">
          <mxGeometry relative="1" as="geometry" />
        </mxCell>
        <mxCell id="lfqBbf79xLDHL1Xbj67x-9" style="edgeStyle=orthogonalEdgeStyle;rounded=0;orthogonalLoop=1;jettySize=auto;html=1;exitX=1;exitY=0.5;exitDx=0;exitDy=0;exitPerimeter=0;entryX=0;entryY=0.5;entryDx=0;entryDy=0;entryPerimeter=0;" edge="1" parent="1" source="lfqBbf79xLDHL1Xbj67x-1" target="lfqBbf79xLDHL1Xbj67x-2">
          <mxGeometry relative="1" as="geometry">
            <Array as="points">
              <mxPoint x="410" y="230" />
              <mxPoint x="410" y="230" />
            </Array>
          </mxGeometry>
        </mxCell>
        <mxCell id="lfqBbf79xLDHL1Xbj67x-12" value="" style="endArrow=none;html=1;rounded=0;" edge="1" parent="1">
          <mxGeometry width="50" height="50" relative="1" as="geometry">
            <mxPoint x="420" y="230" as="sourcePoint" />
            <mxPoint x="420" y="360" as="targetPoint" />
          </mxGeometry>
        </mxCell>
        <mxCell id="lfqBbf79xLDHL1Xbj67x-26" style="edgeStyle=orthogonalEdgeStyle;rounded=0;orthogonalLoop=1;jettySize=auto;html=1;exitX=0;exitY=0.5;exitDx=0;exitDy=0;exitPerimeter=0;entryX=0;entryY=0.5;entryDx=0;entryDy=0;entryPerimeter=0;" edge="1" parent="1" source="lfqBbf79xLDHL1Xbj67x-27" target="lfqBbf79xLDHL1Xbj67x-30">
          <mxGeometry relative="1" as="geometry">
            <mxPoint x="208" y="740" as="targetPoint" />
          </mxGeometry>
        </mxCell>
        <mxCell id="lfqBbf79xLDHL1Xbj67x-27" value="" style="pointerEvents=1;verticalLabelPosition=bottom;shadow=0;dashed=0;align=center;html=1;verticalAlign=top;shape=mxgraph.electrical.resistors.resistor_1;" vertex="1" parent="1">
          <mxGeometry x="228" y="590" width="100" height="20" as="geometry" />
        </mxCell>
        <mxCell id="lfqBbf79xLDHL1Xbj67x-28" style="edgeStyle=orthogonalEdgeStyle;rounded=0;orthogonalLoop=1;jettySize=auto;html=1;exitX=1;exitY=0.5;exitDx=0;exitDy=0;exitPerimeter=0;entryX=1;entryY=0.5;entryDx=0;entryDy=0;entryPerimeter=0;" edge="1" parent="1" source="lfqBbf79xLDHL1Xbj67x-29" target="lfqBbf79xLDHL1Xbj67x-31">
          <mxGeometry relative="1" as="geometry">
            <mxPoint x="618" y="730" as="targetPoint" />
          </mxGeometry>
        </mxCell>
        <mxCell id="lfqBbf79xLDHL1Xbj67x-29" value="" style="pointerEvents=1;verticalLabelPosition=bottom;shadow=0;dashed=0;align=center;html=1;verticalAlign=top;shape=mxgraph.electrical.resistors.resistor_1;" vertex="1" parent="1">
          <mxGeometry x="498" y="590" width="100" height="20" as="geometry" />
        </mxCell>
        <mxCell id="lfqBbf79xLDHL1Xbj67x-30" value="" style="pointerEvents=1;verticalLabelPosition=bottom;shadow=0;dashed=0;align=center;html=1;verticalAlign=top;shape=mxgraph.electrical.resistors.resistor_1;" vertex="1" parent="1">
          <mxGeometry x="228" y="720" width="100" height="20" as="geometry" />
        </mxCell>
        <mxCell id="lfqBbf79xLDHL1Xbj67x-31" value="" style="pointerEvents=1;verticalLabelPosition=bottom;shadow=0;dashed=0;align=center;html=1;verticalAlign=top;shape=mxgraph.electrical.resistors.resistor_1;" vertex="1" parent="1">
          <mxGeometry x="498" y="720" width="100" height="20" as="geometry" />
        </mxCell>
        <mxCell id="lfqBbf79xLDHL1Xbj67x-32" value="" style="verticalLabelPosition=bottom;shadow=0;dashed=0;align=center;fillColor=strokeColor;html=1;verticalAlign=top;strokeWidth=1;shape=mxgraph.electrical.miscellaneous.monocell_battery;" vertex="1" parent="1">
          <mxGeometry x="378" y="860" width="100" height="60" as="geometry" />
        </mxCell>
        <mxCell id="lfqBbf79xLDHL1Xbj67x-33" style="edgeStyle=orthogonalEdgeStyle;rounded=0;orthogonalLoop=1;jettySize=auto;html=1;exitX=0;exitY=0.5;exitDx=0;exitDy=0;exitPerimeter=0;" edge="1" parent="1" source="lfqBbf79xLDHL1Xbj67x-32">
          <mxGeometry relative="1" as="geometry">
            <mxPoint x="210" y="670" as="targetPoint" />
            <Array as="points">
              <mxPoint x="160" y="890" />
            </Array>
          </mxGeometry>
        </mxCell>
        <mxCell id="lfqBbf79xLDHL1Xbj67x-34" style="edgeStyle=orthogonalEdgeStyle;rounded=0;orthogonalLoop=1;jettySize=auto;html=1;exitX=1;exitY=0.5;exitDx=0;exitDy=0;exitPerimeter=0;" edge="1" parent="1" source="lfqBbf79xLDHL1Xbj67x-32">
          <mxGeometry relative="1" as="geometry">
            <mxPoint x="710" y="670" as="targetPoint" />
            <Array as="points">
              <mxPoint x="711" y="890" />
            </Array>
          </mxGeometry>
        </mxCell>
        <mxCell id="lfqBbf79xLDHL1Xbj67x-35" style="edgeStyle=orthogonalEdgeStyle;rounded=0;orthogonalLoop=1;jettySize=auto;html=1;exitX=0;exitY=0.5;exitDx=0;exitDy=0;exitPerimeter=0;entryX=0;entryY=0.5;entryDx=0;entryDy=0;entryPerimeter=0;" edge="1" parent="1" source="lfqBbf79xLDHL1Xbj67x-29" target="lfqBbf79xLDHL1Xbj67x-31">
          <mxGeometry relative="1" as="geometry" />
        </mxCell>
        <mxCell id="lfqBbf79xLDHL1Xbj67x-36" style="edgeStyle=orthogonalEdgeStyle;rounded=0;orthogonalLoop=1;jettySize=auto;html=1;exitX=1;exitY=0.5;exitDx=0;exitDy=0;exitPerimeter=0;entryX=1;entryY=0.5;entryDx=0;entryDy=0;entryPerimeter=0;" edge="1" parent="1" source="lfqBbf79xLDHL1Xbj67x-27" target="lfqBbf79xLDHL1Xbj67x-30">
          <mxGeometry relative="1" as="geometry">
            <Array as="points">
              <mxPoint x="328" y="600" />
            </Array>
          </mxGeometry>
        </mxCell>
        <mxCell id="lfqBbf79xLDHL1Xbj67x-38" value="" style="endArrow=none;html=1;rounded=0;" edge="1" parent="1">
          <mxGeometry width="50" height="50" relative="1" as="geometry">
            <mxPoint x="330" y="670" as="sourcePoint" />
            <mxPoint x="480" y="670" as="targetPoint" />
          </mxGeometry>
        </mxCell>
        <mxCell id="lfqBbf79xLDHL1Xbj67x-39" value="" style="endArrow=none;html=1;rounded=0;" edge="1" parent="1">
          <mxGeometry width="50" height="50" relative="1" as="geometry">
            <mxPoint x="620" y="670" as="sourcePoint" />
            <mxPoint x="710" y="670" as="targetPoint" />
          </mxGeometry>
        </mxCell>
      </root>
    </mxGraphModel>
  </diagram>
</mxfile>
